<svg xmlns="http://www.w3.org/2000/svg" viewBox="0 0 400 400" role="img" aria-labelledby="logoTitle logoDesc">
  <title id="logoTitle">Top Tier Electrical logo</title>
  <desc id="logoDesc">Gold circular badge with lightning bolt, Top Tier Electrical text, and the motto Where quality meets care.</desc>
  <defs>
    <style>
      .gold { fill: #c59b2b; stroke: #c59b2b; }
      .gold-stroke { stroke: #c59b2b; fill: none; }
      .gold-text { fill: #c59b2b; font-family: "Montserrat", "Arial Black", sans-serif; }
    </style>
  </defs>
  <circle cx="200" cy="200" r="180" class="gold-stroke" stroke-width="12"/>
  <circle cx="200" cy="200" r="145" class="gold-stroke" stroke-width="6" stroke-dasharray="12 16"/>
  <line x1="95" y1="155" x2="305" y2="155" class="gold" stroke-width="8" stroke-linecap="round"/>
  <line x1="115" y1="175" x2="285" y2="175" class="gold" stroke-width="6" stroke-linecap="round"/>
  <polygon points="205,42 170,135 205,135 175,225 255,140 225,140" class="gold"/>
  <text x="200" y="215" text-anchor="middle" class="gold-text" font-size="52" font-weight="800" letter-spacing="2">TOP TIER</text>
  <rect x="85" y="233" width="230" height="40" rx="6" class="gold" fill-opacity="0.12" stroke-width="3"/>
  <text x="200" y="262" text-anchor="middle" class="gold-text" font-size="26" font-weight="800" letter-spacing="3">ELECTRICAL</text>
  <text x="200" y="310" text-anchor="middle" class="gold-text" font-size="16" font-weight="700" letter-spacing="1">WHERE QUALITY MEETS CARE.</text>
  <path d="M90 270 A110 110 0 0 0 310 270" class="gold-stroke" stroke-width="6" fill="none"/>
  <g class="gold">
    <polygon points="60,280 75,320 90,280"/>
    <polygon points="90,280 105,320 120,280"/>
    <polygon points="120,280 135,320 150,280"/>
    <polygon points="150,280 165,320 180,280"/>
    <polygon points="180,280 195,320 210,280"/>
    <polygon points="210,280 225,320 240,280"/>
    <polygon points="240,280 255,320 270,280"/>
    <polygon points="270,280 285,320 300,280"/>
    <polygon points="300,280 315,320 330,280"/>
  </g>
</svg>
